<svg width="120" height="64" viewBox="0 0 120 64" fill="none" xmlns="http://www.w3.org/2000/svg">
<g clip-path="url(#clip0_1001_500)">
<path d="M0.111699 27.0338C0.0744283 26.8475 0.049581 26.6735 0.0371574 26.4748C-0.174045 24.3006 0.869542 22.114 2.77036 20.7599L30.3509 1.18021C32.9474 -0.658494 36.5751 -0.323055 38.6002 1.9629C39.3704 2.83255 39.8674 3.83887 40.0786 4.94457C40.2898 6.05028 40.2028 7.20568 39.8425 8.42319C39.5816 9.29285 38.9853 10.1004 38.1653 10.6843L9.67791 30.8976C8.8331 31.5063 7.91375 31.879 7.01925 31.9784C4.67118 32.2642 2.47219 31.3076 1.14286 29.444C0.621069 28.711 0.28563 27.9035 0.111699 27.0338Z" fill="#00A1E9"/>
<path d="M6.03797 58.6395C6.0007 58.4532 5.97585 58.2792 5.96343 58.0805C5.75222 55.9063 6.79581 53.7198 8.69663 52.3656L36.2771 32.7859C38.8737 30.9472 42.5014 31.2827 44.5264 33.5686C45.2967 34.4383 45.7936 35.4446 46.0048 36.5503C46.216 37.656 46.1291 38.8114 45.7688 40.0289C45.5079 40.8986 44.9116 41.7061 44.0916 42.29L15.6042 62.5033C14.7594 63.112 13.84 63.4847 12.9455 63.5841C10.5974 63.8699 8.39846 62.9133 7.06913 61.0497C6.54734 60.3167 6.2119 59.5092 6.03797 58.6395Z" fill="#0068B7"/>
<path d="M23.0211 37.7182C26.3969 37.7182 29.1336 34.9815 29.1336 31.6057C29.1336 28.2299 26.3969 25.4933 23.0211 25.4933C19.6453 25.4933 16.9087 28.2299 16.9087 31.6057C16.9087 34.9815 19.6453 37.7182 23.0211 37.7182Z" fill="#0081CC"/>
<path d="M77.4238 18.9336L78.045 15.0574L77.4238 18.9336Z" fill="#0068B7"/>
<path d="M118.459 9.16858C117.428 7.8144 115.875 7.1311 113.801 7.1311H111.577C110.533 7.1311 109.614 7.34231 108.819 7.75229C108.011 8.17469 107.328 8.73375 106.756 9.4419C106.185 8.73375 105.502 8.17469 104.694 7.75229C103.886 7.32988 102.967 7.1311 101.936 7.1311H99.7121C97.6374 7.1311 96.0844 7.8144 95.0532 9.16858C94.0221 10.5228 93.5127 12.2869 93.5127 14.4486V30.3757C93.5127 30.5 93.55 30.5621 93.6245 30.5621H96.1465C96.2211 30.5621 96.2583 30.5 96.2583 30.3757V14.4486C96.2583 13.9268 96.308 13.405 96.4198 12.8957C96.5316 12.3863 96.718 11.9266 96.9913 11.5291C97.2646 11.1315 97.6249 10.8085 98.0722 10.56C98.5194 10.3116 99.0661 10.1873 99.6997 10.1873H101.924C102.57 10.1873 103.116 10.3116 103.551 10.56C103.998 10.8085 104.359 11.1315 104.632 11.5291C104.905 11.9266 105.092 12.3863 105.203 12.8957C105.315 13.405 105.365 13.9268 105.365 14.4486V30.3757C105.365 30.5 105.402 30.5621 105.477 30.5621H107.999C108.073 30.5621 108.11 30.5 108.11 30.3757V14.4486C108.11 13.9268 108.16 13.405 108.272 12.8957C108.384 12.3863 108.57 11.9266 108.843 11.5291C109.117 11.1315 109.477 10.8085 109.924 10.56C110.372 10.3116 110.918 10.1873 111.552 10.1873H113.776C114.422 10.1873 114.968 10.3116 115.403 10.56C115.85 10.8085 116.211 11.1315 116.484 11.5291C116.757 11.9266 116.944 12.3863 117.056 12.8957C117.167 13.405 117.217 13.9268 117.217 14.4486V30.3757C117.217 30.5 117.254 30.5621 117.329 30.5621H119.851C119.925 30.5621 119.963 30.5 119.963 30.3757V14.4486C119.963 12.2869 119.453 10.5228 118.422 9.16858H118.459Z" fill="#0068B7"/>
<path d="M90.0091 14.5357C89.9842 14.3742 89.9345 14.0884 89.86 13.6785C89.7854 13.2685 89.6612 12.784 89.4997 12.2249C89.3133 11.6783 89.0773 11.0943 88.7915 10.498C88.5058 9.90167 88.1455 9.35503 87.7107 8.84566C87.2759 8.33629 86.7416 7.92631 86.1205 7.6033C85.4993 7.28028 84.7911 7.11877 83.9836 7.11877H80.6292C79.8217 7.11877 79.1135 7.28028 78.4923 7.6033C77.8712 7.92631 77.3494 8.33629 76.9021 8.84566C76.4673 9.35503 76.107 9.90167 75.8212 10.498C75.5355 11.0943 75.2995 11.6658 75.1131 12.2249C74.9516 12.7715 74.8274 13.2561 74.7528 13.6785C74.6783 14.0884 74.6162 14.3742 74.6037 14.5357L72.1066 30.1025C72.0817 30.264 72.0817 30.4752 72.1687 30.5001C72.2681 30.5373 72.4793 30.5622 72.6781 30.5498H75.0261C75.1876 30.5746 75.3243 30.5373 75.4361 30.4255C75.5479 30.3261 75.6225 30.1895 75.6473 30.028L76.84 22.7601C76.8648 22.5738 77.0263 22.4496 77.2127 22.4496H87.4374C87.6237 22.4496 87.7852 22.5862 87.8101 22.7601L89.0027 30.028C89.0276 30.1895 89.0897 30.3261 89.2139 30.4255C89.3258 30.5249 89.4624 30.5746 89.6239 30.5498H91.972C92.1708 30.5498 92.3696 30.5498 92.4814 30.5001C92.5683 30.4628 92.5683 30.264 92.5435 30.1025L90.0463 14.5357H90.0091ZM86.8038 19.3561H77.3494L77.4239 18.9212L78.0451 15.0575C78.0948 14.6724 78.1817 14.2003 78.3184 13.6412C78.4551 13.0945 78.629 12.5603 78.8402 12.051C79.0514 11.5416 79.2999 11.1192 79.598 10.7589C79.8962 10.3986 80.2441 10.2247 80.6292 10.2247H83.9836C84.3687 10.2247 84.7166 10.3986 85.0147 10.7589C85.3129 11.1192 85.5614 11.5416 85.7726 12.051C85.9838 12.5603 86.1577 13.0821 86.2944 13.6412C86.431 14.1878 86.518 14.6599 86.5677 15.0575L87.251 19.3685H86.8038V19.3561Z" fill="#0068B7"/>
<path d="M87.1766 18.9336C87.2139 19.1572 87.04 19.3684 86.8039 19.3684H87.2512L86.5679 15.0574L87.1891 18.9211L87.1766 18.9336Z" fill="#0068B7"/>
<path d="M77.4242 18.9336L77.3496 19.3684H77.7969C77.5608 19.3684 77.3869 19.1572 77.4242 18.9336Z" fill="#0068B7"/>
<path d="M71.5973 20.586C71.3613 19.9523 71.001 19.3684 70.4916 18.8094C69.9574 18.2627 69.2865 17.7906 68.4541 17.4179C67.6217 17.0328 66.603 16.834 65.3855 16.8092L60.5651 16.7346C59.8073 16.7346 59.2234 16.6104 58.8134 16.3743C58.4034 16.1383 58.1052 15.865 57.9189 15.5668C57.7077 15.2686 57.5586 14.8711 57.4716 14.3617V12.6348C57.4716 12.1503 57.5586 11.7527 57.7325 11.4421C57.9065 11.1316 58.1177 10.8707 58.3661 10.6719C58.5897 10.4855 58.8506 10.3613 59.124 10.2992C59.3973 10.2246 59.6582 10.1998 59.8818 10.1998H69.7586C70.7525 10.1998 71.2494 9.68213 71.2494 8.64683C71.2494 7.82687 70.6034 7.15599 69.7959 7.09387H59.8818C59.1488 7.09387 58.4282 7.21811 57.7325 7.45416C57.0368 7.69021 56.4032 8.05049 55.8565 8.51017C55.3099 8.99469 54.8627 9.5786 54.5272 10.2619C54.1918 10.9452 54.0303 11.7403 54.0303 12.6348V14.3617C54.0303 14.8214 54.1421 15.3556 54.3533 15.9768C54.5769 16.598 54.9372 17.1943 55.4341 17.7658C55.9435 18.3373 56.6144 18.8342 57.4468 19.2318C58.2792 19.6293 59.3227 19.8405 60.5651 19.8405L65.3855 19.9151C66.1433 19.9151 66.7272 20.0393 67.1372 20.2754C67.5472 20.5114 67.8578 20.7847 68.069 21.0829C68.2553 21.3811 68.392 21.7786 68.479 22.288V25.046C68.479 25.5306 68.392 25.9281 68.2181 26.2387C68.0441 26.5493 67.8454 26.7978 67.6093 26.9841C67.3608 27.1953 67.0875 27.3196 66.8142 27.3817C66.5409 27.4438 66.28 27.4687 66.0564 27.4687H54.8875C54.5148 27.4687 54.3409 27.6674 54.3409 28.0526V30.0155C54.3409 30.3882 54.5272 30.5621 54.8875 30.5621H66.0564C66.839 30.5621 67.572 30.4503 68.2802 30.2143C68.9759 29.9907 69.6095 29.6428 70.1562 29.1831C70.6904 28.6986 71.1128 28.1147 71.4358 27.4314C71.7588 26.7481 71.9203 25.953 71.9203 25.0585V22.3004C71.9203 21.791 71.8085 21.232 71.5725 20.5984L71.5973 20.586Z" fill="#0068B7"/>
<path d="M68.7401 34.339H54.515C54.1796 34.339 54.0181 34.5005 54.0181 34.8359V36.6374C54.0181 36.9728 54.1796 37.1343 54.515 37.1343H60.5281V54.9125C60.5281 55.248 60.6896 55.4095 61.025 55.4095H63.137C63.4725 55.4095 63.634 55.248 63.634 54.9125V37.1343H69.647C69.9825 37.1343 70.144 36.9728 70.144 36.6374V35.7429C70.144 34.9726 69.5228 34.3514 68.7525 34.3514L68.7401 34.339Z" fill="#00A1E9"/>
<path d="M101.837 34.339H93.9354C92.1837 34.339 90.8171 34.7862 89.8356 35.6807C88.8542 36.5752 88.3696 37.8797 88.3696 39.5942V50.1294C88.3696 51.0985 88.5063 51.9185 88.792 52.5893C89.0654 53.2602 89.4629 53.8068 89.9599 54.2168C90.4568 54.6268 91.0407 54.925 91.724 55.1113C92.4073 55.2977 93.1527 55.3846 93.9603 55.3846H101.862H102.756C103.092 55.3846 103.253 55.2231 103.253 54.8877V53.9932C103.253 53.2229 102.632 52.6018 101.862 52.6018H93.9603C93.6745 52.6018 93.3764 52.5521 93.0782 52.4527C92.78 52.3533 92.5191 52.1918 92.2831 51.993C92.0346 51.8066 91.8358 51.5582 91.6992 51.2476C91.5501 50.937 91.488 50.5643 91.488 50.1294V45.7936H98.8428H99.7745H102.756C103.092 45.7936 103.253 45.6321 103.253 45.2966V44.4021C103.253 43.6319 102.632 43.0107 101.874 43.0107H99.7994H98.8676H91.5128V39.6066C91.5128 39.1718 91.5874 38.7991 91.724 38.4885C91.8731 38.1779 92.0595 37.917 92.3079 37.7182C92.5316 37.5319 92.7925 37.3828 93.103 37.2834C93.4012 37.184 93.6994 37.1343 93.9851 37.1343H101.887H102.781C103.117 37.1343 103.278 36.9728 103.278 36.6374V35.7429C103.278 34.9726 102.657 34.3514 101.887 34.3514L101.837 34.339Z" fill="#00A1E9"/>
<path d="M118.609 34.339H110.707C108.956 34.339 107.589 34.7862 106.608 35.6807C105.626 36.5752 105.142 37.8797 105.142 39.5942V50.1294C105.142 51.0985 105.278 51.9185 105.564 52.5893C105.837 53.2602 106.235 53.8068 106.732 54.2168C107.229 54.6268 107.813 54.925 108.496 55.1113C109.179 55.2977 109.925 55.3846 110.732 55.3846H118.634H119.528C119.864 55.3846 120.025 55.2231 120.025 54.8877V53.9932C120.025 53.2229 119.404 52.6018 118.634 52.6018H110.732C110.446 52.6018 110.148 52.5521 109.85 52.4527C109.552 52.3533 109.291 52.1918 109.055 51.993C108.807 51.8066 108.608 51.5582 108.471 51.2476C108.322 50.937 108.26 50.5643 108.26 50.1294V45.7936H115.615H116.547H119.528C119.864 45.7936 120.025 45.6321 120.025 45.2966V44.4021C120.025 43.6319 119.404 43.0107 118.646 43.0107H116.571H115.64H108.285V39.6066C108.285 39.1718 108.359 38.7991 108.496 38.4885C108.645 38.1779 108.831 37.917 109.08 37.7182C109.304 37.5319 109.564 37.3828 109.875 37.2834C110.173 37.184 110.471 37.1343 110.757 37.1343H118.659H119.553C119.888 37.1343 120.05 36.9728 120.05 36.6374V35.7429C120.05 34.9726 119.429 34.3514 118.659 34.3514L118.609 34.339Z" fill="#00A1E9"/>
<path d="M86.3566 52.9496C86.456 53.0739 86.6672 53.3844 86.6175 53.8441C86.5802 54.2417 86.2448 54.5647 86.1081 54.6517L85.0148 55.3225C84.7912 55.4592 84.5924 55.4219 84.4061 55.1983L76.3804 45.7066C76.1568 45.483 76.0201 45.2345 75.9829 44.9736C75.9456 44.7127 75.9829 44.4643 76.1071 44.2406C76.2065 44.0419 76.3804 43.8555 76.6413 43.7064C76.8898 43.5573 77.2004 43.4828 77.5358 43.4828H81.8717C82.3562 43.4828 82.7413 43.3958 83.0271 43.2219C83.3128 43.048 83.524 42.8492 83.6731 42.6256C83.7973 42.4019 83.8719 42.1783 83.9091 41.9671C83.934 41.7559 83.9588 41.5944 83.9588 41.495V39.06C83.9588 38.5133 83.7352 38.0661 83.3004 37.7182C82.8656 37.3704 82.3686 37.1964 81.822 37.1964H76.1816C75.6474 37.1964 75.2499 37.3082 74.9641 37.5319C74.6784 37.7555 74.4672 38.004 74.3181 38.2649C74.1566 38.5879 74.0696 38.9482 74.0448 39.3333V54.7138C74.0448 55.0368 73.8833 55.1983 73.5602 55.1983H71.4855C71.1625 55.1983 71.001 55.0368 71.001 54.7138V39.3333C71.001 38.8612 71.0879 38.3518 71.2743 37.7803C71.4606 37.2089 71.7464 36.6871 72.1564 36.1901C72.5664 35.7056 73.1006 35.2956 73.759 34.9602C74.4175 34.6247 75.225 34.4508 76.1816 34.4508H81.822C82.555 34.4508 83.2383 34.575 83.8843 34.8111C84.5303 35.0596 85.077 35.3826 85.5491 35.7926C85.9963 36.215 86.3566 36.7119 86.6175 37.2585C86.8784 37.8052 87.0151 38.4015 87.0151 39.0227V41.4577C87.0151 42.0292 86.9157 42.6007 86.7045 43.1722C86.5057 43.7437 86.1827 44.2531 85.7603 44.7003C85.3379 45.1476 84.8036 45.5079 84.1576 45.7936C83.5116 46.0793 82.7537 46.216 81.8841 46.216H80.6045L86.369 52.9372L86.3566 52.9496Z" fill="#00A1E9"/>
</g>
<defs>
<clipPath id="clip0_1001_500">
<rect width="120" height="63.6339" fill="white"/>
</clipPath>
</defs>
</svg>
