<svg width="26" height="26" viewBox="0 0 26 26" fill="none" xmlns="http://www.w3.org/2000/svg">
<path d="M14.0566 24.0604H11.9466C11.701 24.0604 11.4578 24.0121 11.231 23.9181C11.0041 23.8241 10.7979 23.6864 10.6243 23.5127C10.4506 23.3391 10.3129 23.1329 10.2189 22.906C10.1249 22.6792 10.0766 22.436 10.0766 22.1904V21.1204C9.11349 20.7696 8.21981 20.2516 7.43657 19.5904L6.50657 20.1304C6.07468 20.3743 5.56421 20.4387 5.08529 20.3096C4.60636 20.1805 4.19738 19.8684 3.94657 19.4404L2.94657 17.6204C2.82315 17.4072 2.74308 17.1717 2.71097 16.9274C2.67886 16.6831 2.69534 16.4349 2.75945 16.197C2.82357 15.9591 2.93407 15.7362 3.0846 15.5412C3.23512 15.3461 3.42271 15.1828 3.63657 15.0604L4.55657 14.5304C4.3699 13.519 4.3699 12.4819 4.55657 11.4704L3.58657 10.9404C3.37271 10.8181 3.18512 10.6547 3.0346 10.4597C2.88407 10.2646 2.77357 10.0417 2.70945 9.80385C2.64534 9.56596 2.62886 9.31775 2.66097 9.07347C2.69308 8.82919 2.77315 8.59367 2.89657 8.38043L3.94657 6.56043C4.19553 6.1305 4.60454 5.8166 5.08423 5.68731C5.56392 5.55802 6.07528 5.62385 6.50657 5.87043L7.43657 6.41043C8.21486 5.74223 9.10987 5.22353 10.0766 4.88043V3.81043C10.0766 3.31447 10.2736 2.83883 10.6243 2.48814C10.975 2.13745 11.4506 1.94043 11.9466 1.94043H14.0566C14.5525 1.94043 15.0282 2.13745 15.3789 2.48814C15.7296 2.83883 15.9266 3.31447 15.9266 3.81043V4.88043C16.8933 5.22353 17.7883 5.74223 18.5666 6.41043L19.4966 5.87043C19.9279 5.62385 20.4392 5.55802 20.9189 5.68731C21.3986 5.8166 21.8076 6.1305 22.0566 6.56043L23.1066 8.38043C23.3531 8.81173 23.419 9.32309 23.2897 9.80277C23.1604 10.2825 22.8465 10.6915 22.4166 10.9404L21.4966 11.4704C21.6832 12.4819 21.6832 13.519 21.4966 14.5304L22.4166 15.0604C22.6324 15.1815 22.8215 15.3449 22.9727 15.5408C23.1239 15.7366 23.2341 15.961 23.2966 16.2004C23.4199 16.6805 23.3518 17.1897 23.1066 17.6204L22.0566 19.4404C21.8058 19.8684 21.3968 20.1805 20.9179 20.3096C20.4389 20.4387 19.9285 20.3743 19.4966 20.1304L18.5666 19.5904C17.7833 20.2516 16.8897 20.7696 15.9266 21.1204V22.1904C15.9266 22.6864 15.7296 23.162 15.3789 23.5127C15.0282 23.8634 14.5525 24.0604 14.0566 24.0604ZM7.64657 17.8604L8.02657 18.2304C8.87402 19.0341 9.90329 19.6207 11.0266 19.9404L11.5366 20.0904V22.1904C11.5366 22.3151 11.5861 22.4346 11.6742 22.5228C11.7624 22.6109 11.8819 22.6604 12.0066 22.6604H14.1166C14.2412 22.6604 14.3608 22.6109 14.4489 22.5228C14.5371 22.4346 14.5866 22.3151 14.5866 22.1904V20.0904L15.0866 19.9404C16.2103 19.6218 17.2398 19.035 18.0866 18.2304L18.4666 17.8604L20.2866 18.8604C20.3395 18.8924 20.3983 18.9134 20.4594 18.9222C20.5206 18.9309 20.5829 18.9272 20.6427 18.9114C20.7024 18.8955 20.7583 18.8678 20.8071 18.8298C20.8559 18.7918 20.8965 18.7444 20.9266 18.6904L21.8966 16.9404C21.9214 16.8837 21.9341 16.8224 21.9341 16.7604C21.9341 16.6985 21.9214 16.6372 21.8966 16.5804C21.8816 16.5197 21.8543 16.4626 21.8165 16.4127C21.7787 16.3629 21.731 16.3213 21.6766 16.2904L19.8666 15.2404L19.9866 14.7304C20.2665 13.6076 20.2665 12.4333 19.9866 11.3104L19.8666 10.8004L21.6766 9.80043C21.786 9.73752 21.8663 9.63403 21.9 9.51237C21.9337 9.39071 21.9181 9.26068 21.8566 9.15043L20.8366 7.26043C20.8064 7.20658 20.7659 7.1592 20.7174 7.12101C20.6689 7.08282 20.6133 7.05455 20.5539 7.03784C20.4944 7.02112 20.4323 7.01628 20.371 7.02359C20.3097 7.0309 20.2504 7.05021 20.1966 7.08043L18.3766 8.13043L17.9966 7.77043C17.1498 6.96584 16.1203 6.37901 14.9966 6.06043L14.5266 5.94043V3.81043C14.5266 3.68578 14.4771 3.56623 14.3889 3.47809C14.3008 3.38995 14.1812 3.34043 14.0566 3.34043H11.9466C11.8219 3.34043 11.7024 3.38995 11.6142 3.47809C11.5261 3.56623 11.4766 3.68578 11.4766 3.81043V5.94043L10.9666 6.09043C9.84329 6.41012 8.81402 6.99681 7.96657 7.80043L7.64657 8.13043L5.80657 7.08043C5.69633 7.01893 5.56629 7.00334 5.44463 7.03703C5.32297 7.07072 5.21948 7.15098 5.15657 7.26043L4.15657 9.08043C4.09507 9.19068 4.07948 9.32071 4.11317 9.44237C4.14686 9.56403 4.22712 9.66752 4.33657 9.73043L6.14657 10.7304L6.02657 11.2404C5.74669 12.3633 5.74669 13.5376 6.02657 14.6604L6.14657 15.1704L4.27657 16.2704C4.16882 16.335 4.09067 16.4392 4.05889 16.5607C4.02711 16.6822 4.04423 16.8114 4.10657 16.9204L5.10657 18.7404C5.1376 18.7948 5.17917 18.8424 5.22884 18.8805C5.27851 18.9185 5.33528 18.9463 5.39582 18.9621C5.45637 18.978 5.51946 18.9815 5.58141 18.9727C5.64336 18.9638 5.70291 18.9426 5.75657 18.9104L7.64657 17.8604Z" fill="#929B9F"/>
<path d="M12.9966 16.9404C12.2228 16.9404 11.4665 16.7109 10.8233 16.2808C10.18 15.8507 9.6789 15.2394 9.38326 14.5244C9.08762 13.8094 9.01077 13.0227 9.16245 12.2639C9.31413 11.5052 9.68752 10.8085 10.2353 10.2621C10.7832 9.71568 11.4808 9.34408 12.2399 9.19434C12.999 9.04461 13.7855 9.12347 14.4998 9.42094C15.2141 9.71841 15.8241 10.2211 16.2525 10.8654C16.6809 11.5097 16.9086 12.2667 16.9066 13.0404C16.9039 14.0757 16.4908 15.0676 15.7578 15.7988C15.0248 16.5299 14.0318 16.9404 12.9966 16.9404ZM12.9966 10.5304C12.5001 10.5304 12.0149 10.6776 11.6021 10.9534C11.1893 11.2292 10.8676 11.6213 10.6776 12.0799C10.4877 12.5385 10.438 13.0432 10.5348 13.5301C10.6317 14.017 10.8707 14.4642 11.2217 14.8153C11.5728 15.1663 12.02 15.4054 12.5069 15.5022C12.9938 15.599 13.4985 15.5493 13.9571 15.3594C14.4158 15.1694 14.8078 14.8477 15.0836 14.4349C15.3594 14.0221 15.5066 13.5369 15.5066 13.0404C15.5119 12.7075 15.4509 12.3768 15.3271 12.0676C15.2034 11.7584 15.0193 11.477 14.7857 11.2397C14.5521 11.0023 14.2736 10.8139 13.9664 10.6852C13.6593 10.5566 13.3296 10.4904 12.9966 10.4904V10.5304Z" fill="#929B9F"/>
</svg>
